# xmcd CD database file
#
# Track frame offsets:
#	150
#	11187
#	34537
#	49014
#	70688
#	102616
#	119593
#	132870
#	153907
#	175809
#	196630
#	222663
#	240098
#	257945
#	272231
#	281532
#	293497
#	311408
#	328938
#	344319
#
# Disc length: 4742 seconds
#
# Revision: 1
# Processed by: cddbd v1.5.2PL0 Copyright (c) Steve Scherf et al.
# Submitted via: CDex 1.51
#
DISCID=28128414
DTITLE=Georg Danzer - Wann i so z'ruckschau - CD 2
DYEAR=2011
DGENRE=Austropop
TTITLE0=Die Freiheit
TTITLE1=Mei Leb'n (Radio Version)
TTITLE2=Ruhe vor dem Sturm (Radio Version)
TTITLE3=Griechenland (Radio Version)
TTITLE4=Der alte Wessely (gewidmet 140.000 Österreichern) (Radio Version)
TTITLE5=Deppert's Kind
TTITLE6=Nur a klana Bua im Winter
TTITLE7=Zombieball
TTITLE8=Die Türken (Radio Version)
TTITLE9=Weisse Pferde
TTITLE10=Für Anne (1912)
TTITLE11=Menschliche Wärme
TTITLE12=Mit letzter Kraft
TTITLE13=Doppelgänger
TTITLE14=Joschko
TTITLE15=Heute Nacht erschien mir Albert Einstein
TTITLE16=Die Leut' san alle deppert! - Ausser mir
TTITLE17=Total
TTITLE18=Sei imma höflich! (Album Version)
TTITLE19=Heasd Karli, Du bisd a Wahnsinn (mit Marianne Mendt)
EXTD=YEAR: 2011
EXTT0=
EXTT1=
EXTT2=
EXTT3=
EXTT4=
EXTT5=
EXTT6=
EXTT7=
EXTT8=
EXTT9=
EXTT10=
EXTT11=
EXTT12=
EXTT13=
EXTT14=
EXTT15=
EXTT16=
EXTT17=
EXTT18=
EXTT19=
PLAYORDER=
